<?xml version="1.0" standalone="no"?><!DOCTYPE svg PUBLIC "-//W3C//DTD SVG 20010904//EN" "http://www.w3.org/TR/2001/REC-SVG-20010904/DTD/svg10.dtd"><svg version="1.0" xmlns="http://www.w3.org/2000/svg" width="16pt" height="16pt" viewBox="0 0 580 580"><path d="M272.834,498.292c-11.148,0-17.287-6.14-17.287-17.289l-0.001-110.729c0-2.209,1.791-4,4-4s4,1.791,4,4l0.001,110.729   c0,6.684,2.604,9.289,9.287,9.289s9.287-2.604,9.288-9.289V370.275c0-2.209,1.791-4,4-4s4,1.791,4,4v110.729   C290.121,492.153,283.981,498.292,272.834,498.292z"/><path d="M255.118,347.701c-2.209,0-4-1.791-4-4V126.673c0-11.148,6.14-17.287,17.288-17.287h8.858c0.02,0,0.041,0,0.061,0l66.375,0   c1.722,0,3.25,1.102,3.795,2.735c8.449,25.347,13.493,69.49,13.493,118.084c0,48.628-5.057,91.568-13.528,114.863   c-0.575,1.581-2.077,2.633-3.759,2.633h-75.295c-2.209,0-4-1.791-4-4s1.791-4,4-4h72.449   c16.181-48.842,16.149-169.495-0.074-222.315l-63.5,0c-0.02,0-0.041,0-0.062,0h-8.813c-6.684,0-9.288,2.604-9.288,9.287v217.028   C259.118,345.91,257.327,347.701,255.118,347.701z"/><path d="M330.413,126.103c-2.76,0-5,2.238-5,5c0,2.761,2.24,5,5,5c2.762,0,5.002-2.238,5.002-5   C335.415,128.341,333.174,126.103,330.413,126.103L330.413,126.103z"/><path d="M290.551,360.988h-35.433c-2.209,0-4-1.791-4-4s1.791-4,4-4h35.433c2.209,0,4,1.791,4,4S292.76,360.988,290.551,360.988z"/></svg>
